<?xml version="1.0" standalone="no"?>
<!DOCTYPE svg PUBLIC "-//W3C//DTD SVG 20010904//EN"
 "http://www.w3.org/TR/2001/REC-SVG-20010904/DTD/svg10.dtd">
<svg version="1.0" xmlns="http://www.w3.org/2000/svg"
 width="640.000000pt" height="1280.000000pt" viewBox="0 0 640.000000 1280.000000"
 preserveAspectRatio="xMidYMid meet">
<metadata>
Created by potrace 1.15, written by Peter Selinger 2001-2017
</metadata>
<g transform="translate(0.000000,1280.000000) scale(0.100000,-0.100000)"
fill="#000000" stroke="none">
<path d="M3085 12787 c-47 -22 -91 -63 -111 -104 -14 -30 -18 -63 -19 -153 l0
-115 -40 -73 c-22 -40 -107 -169 -189 -288 l-149 -216 -41 64 c-22 34 -112
185 -201 334 -88 149 -170 284 -182 300 -19 26 -23 27 -37 14 -24 -24 -89
-148 -172 -328 -42 -92 -92 -198 -111 -235 -35 -66 -36 -67 -56 -50 -11 10
-133 160 -272 333 -242 303 -285 353 -285 334 0 -25 62 -425 164 -1063 76
-474 119 -717 128 -722 7 -5 25 -9 40 -9 36 0 64 -28 77 -77 6 -21 24 -128 41
-238 45 -308 77 -448 150 -658 118 -343 269 -593 508 -839 46 -48 82 -92 80
-97 -1 -5 -299 -237 -660 -516 l-658 -506 0 -117 c0 -145 9 -178 65 -240 33
-37 402 -332 584 -469 14 -10 8 -15 -34 -33 -104 -44 -139 -66 -181 -113 -137
-153 -115 -414 44 -530 84 -61 164 -75 494 -86 296 -10 292 -9 272 -108 -39
-186 -390 -1709 -803 -3488 -269 -1157 -343 -1478 -364 -1569 -25 -112 -15
-103 -157 -136 -202 -47 -284 -120 -331 -296 -20 -70 -22 -112 -27 -386 l-4
-308 2551 0 2551 0 0 259 c0 143 -5 294 -11 336 -36 264 -127 354 -405 404
-58 10 -107 21 -110 24 -8 8 -960 4009 -1194 5015 -28 123 -49 226 -46 230 12
12 122 20 271 21 172 1 347 16 423 35 154 41 242 155 250 326 5 104 -18 175
-80 245 -52 59 -95 86 -191 120 -43 15 -77 29 -77 30 0 2 98 79 218 172 443
343 427 324 438 528 l6 130 -533 410 c-293 226 -593 457 -667 513 l-134 104
74 76 c183 191 299 354 402 566 136 279 213 542 265 906 28 195 58 318 86 360
44 64 110 386 229 1110 81 490 108 671 103 677 -7 6 -120 -136 -335 -425 -100
-133 -185 -243 -189 -243 -4 1 -55 119 -113 263 -110 274 -178 428 -190 428
-11 0 -73 -98 -241 -385 -157 -268 -220 -368 -241 -381 -16 -10 -95 78 -233
261 -190 252 -206 291 -166 384 31 74 28 128 -11 187 -61 90 -183 137 -263
101z"/>
</g>
</svg>
